<svg id="dhl_icons" xmlns="http://www.w3.org/2000/svg" viewBox="0 0 48 48"><path d="M24.2832,43.9688c-4.2036.0002-8.1167-1.3037-11.1035-3.8081-3.5474-2.9741-7.4712-9.0974-6.0171-21.3782,1.3345-11.2661,10.9287-15.5032,19.2808-14.6758,7.7129.7661,12.2534,4.5144,14.7231,12.1533l-3.5205,1.1382c-2.0073-6.2087-5.3589-8.9927-11.5679-9.6096-5.0962-.5042-14.0449,1.3313-15.2407,11.429-.9976,8.4216.6348,14.6831,4.7192,18.1079,4.1177,3.4517,9.9282,3.3696,13.9937,2.1423,3.5547-1.0732,6.2842-3.8228,6.6382-6.6863.4648-3.7686-1.3594-5.7715-3.0366-6.8013-.3276,2.4153-1.0137,4.7034-2.6987,6.3247-1.3706,1.3181-2.855,1.7622-4.2549,2.0457-2.415.4893-5.2456-.1436-7.0425-1.575-1.4468-1.1531-2.3223-2.7048-2.4653-4.3696-.1001-1.1614.1182-2.925,1.7236-4.7319,2.7021-3.0408,8.1113-2.938,11.0713-2.6116-.25-1.0811-.7158-2.0425-1.3613-2.7605-.7749-.8623-1.7319-1.3201-2.8447-1.3604-1.6738-.0605-3.959.2861-5.3555,2.2808l-3.0312-2.1216c1.8335-2.6196,4.8628-3.9902,8.5205-3.8569,2.1235.0769,4.0127.9709,5.4629,2.585,1.4272,1.5884,2.2935,3.752,2.4814,6.1172,3.2959,1.3572,7.3076,4.7676,6.5029,11.2888-.5361,4.3398-4.2495,8.2681-9.2407,9.7749-2.1309.6436-4.269.959-6.3364.959ZM26.7129,24.6052c-2.2495,0-4.5166.3826-5.5332,1.5264-.5874.6616-.8579,1.3201-.8032,1.9575.0552.6426.4409,1.2793,1.085,1.7927.813.6477,2.5337,1.1414,4.0024.8423,1.0391-.2104,1.769-.4556,2.4243-1.0857,1.0625-1.0225,1.4736-2.8601,1.6802-4.8425-.8755-.1162-1.8643-.1907-2.8555-.1907Z" fill="#d70511" stroke-width="0"/></svg>